<svg id="Layer_1" data-name="Layer 1" xmlns="http://www.w3.org/2000/svg" viewBox="0 0 1004 617">
  <title>HP素材</title>
  <path d="M1012-.48V615.93H.4V-.48Zm-307.45,330V280.05h-47V387.64h47.07V334.3H658.43v-4.8Zm.17-275.31c-2.94.45-5.72.69-8.4,1.32-22.52,5.2-38.53,23.7-39,50.18-.28,17.7-.05,35.41-.05,53.11v2.53h47.27V108H658.42v-4.88h46.3ZM504,161.35V108H457.82v-4.88h46.44V54.21c-2.8.42-5.58.68-8.28,1.28A49,49,0,0,0,468,72.86c-7.85,9.5-10.86,20.81-11.21,32.65-.54,17.85-.14,35.72-.14,53.59v2.25ZM103.69,449.93V392.78H56.56v57.15Zm200.63,0V392.78H257.18v57.15Zm153.45-.06h47.14V392.81H457.77Zm199.63,0h47.22V392.81H657.4Zm200.71-57.07v57.14h47.11V392.79Zm0-226.09v56.84h47.07V166.7Zm-200.64,0v56.88h47.1V166.68ZM504,223.63v-57H456.83v57Zm-199.63,0v-57H257.19v57Zm-200.58,0V166.72H56.62v56.89ZM510.15,449.87H556.3V392.81H510.15Zm-200.62,0h46.15V392.81H309.53Zm400.28-57.08v57.1H756v-57.1Zm-554.67,0H109v57.08h46.14Zm755.34,0v57h46.13v-57Zm-755.32-226H108.93v56.84h46.23Zm200.6,0H309.62v56.88h46.14Zm199.65,0H509.19v56.84h46.22ZM756,223.63v-57H709.83v57Zm200.69-56.87H910.43v56.83h46.23Zm-699.5-5.47h47.13v-53H257.16Zm648,226.38V334.61H858.06v53.06ZM505,334.59H457.87v53.06H505ZM56.61,108.21v53.06h47.13V108.21Zm0,226.32v53.06h47.13V334.53ZM905.19,161.36V108.3H858.06v53.06Zm-648,173.17v53.06h47.13V334.53Zm98.5,53.21V334.58h-46.1v53.16Zm-200.64-.07V334.6H108.94v53.07Zm801.49,0V334.61H910.44v53.06Zm-446.42-.06H556.3V334.54H510.16Zm245.8.06V334.6H709.81v53.07ZM155.07,161.36V108.45H108.94v52.91Zm200.63,0V108.44H309.56v52.91Zm199.63,0V108.44H509.19v52.91ZM756,108.5H709.87v52.85H756ZM910.4,161.29h46.23V108.47H910.4ZM505,280.16h-48.2v49.16H505Zm451.63-.08H909.45v49.25h47.21Zm-98.6,49.22h47.12V280H858.06ZM708.87,280v49.26h47.07V280ZM509.15,329.27h47.21V280.08H509.15ZM355.82,280.1H308.61v49.16h47.21ZM257.23,280v49.27h47.06V280ZM155.09,329.38V280.1H108v49.28Zm-98.53-.08h47.12V280H56.56ZM304.14,54.55c-28.42.53-48.2,26.38-46.84,48.46h46.84ZM56.76,103h46.91V54.58C77.86,54.76,56.1,77.94,56.76,103ZM905.28,54.48c-29.73.92-48.19,27.7-46.75,48.49h46.75Zm-396,.08V103H555.9C556.12,76.24,534.2,55.08,509.24,54.56ZM709.82,103H756.2c.67-24.68-19.73-47.55-46.38-48.43Zm246.7.09c1.19-23.67-19.08-47.65-46-48.49V103ZM155.1,103c.14-28-23-48-46.12-48.46V103Zm200.28,0c.72-25.91-21.15-47.81-45.76-48.49v48.49Z"/>
</svg>
