<svg id="Layer_1" data-name="Layer 1" xmlns="http://www.w3.org/2000/svg" viewBox="0 0 129 451" style="fill: white;" >
  <title>HP素材</title>
  <path d="M106.54,27.65c-.08-.34,0-.46.36-.39.46.3,1.63.39,3.53.25a33.34,33.34,0,0,0,4.73-.58,27.13,27.13,0,0,1,4.43-.45c.31,0,.49.06.5.24a1,1,0,0,0,.29.65,1.94,1.94,0,0,1,.27,1.06c0,.5-.25.57-.72.27a7.12,7.12,0,0,0-4.61-.49,11.09,11.09,0,0,1-4.08.4,9.53,9.53,0,0,0-3.7.41c-.64.31-.93.24-.91-.18A8.85,8.85,0,0,0,106.54,27.65Zm3.53-7.88c-.15-.36.05-.49.61-.38a16,16,0,0,0,3.44-.25,13.37,13.37,0,0,1,2.34-.35c.2,0,.32.2.36.58s-.11.61-.31.67c-1,.28-1.84.57-2.63.84s-1.35.36-1.65.2a2.23,2.23,0,0,0-1.46.09c-.27.15-.43,0-.45-.34A5.41,5.41,0,0,0,110.07,19.77Zm.55,3.78c-.12-.33,0-.43.56-.36a12.78,12.78,0,0,0,3-.33,12,12,0,0,1,2-.37c.22,0,.34.19.38.54s-.11.59-.29.64c-.85.27-1.62.56-2.29.81s-1.17.38-1.44.24a1.74,1.74,0,0,0-1.27.12c-.29.13-.44,0-.45-.32A3.67,3.67,0,0,0,110.62,23.55Z"/>
  <path d="M108.84,39.24a21.66,21.66,0,0,0,2.09-3.31,10.83,10.83,0,0,0,.5-1.46c0-.39.29-.45.72-.16a9.41,9.41,0,0,0,.94.63c.18.14.13.31-.14.47a1.43,1.43,0,0,0-.54.59c-.15.18-.29.44-.51.74.52-.05,1.78-.27,3.8-.63.7-.2,1-.22,1,0s0,.38,0,.64a.54.54,0,0,1-.5.56,10.28,10.28,0,0,1-1.57.45v1.77l2.45-.43c.15-.08.25.18.33.72s-.09.75-.53.54c-.73,0-1.49.14-2.27.25,0,.7,0,1.31,0,1.83a3.19,3.19,0,0,0,0,.65q1.65-.18,3.24-.27a6.52,6.52,0,0,0,2-.23c.11,0,.2.07.31.29a.73.73,0,0,0,.34.45c.15.09.2.36.2.77s-.18.58-.4.42a17.71,17.71,0,0,0-5.78-.28c0,1.21-.09,2.8-.12,4.78a1.83,1.83,0,0,0,.16.93c.11.16,0,.27-.25.29a3.09,3.09,0,0,1-1,0c-.21,0-.25-.07-.07-.23s.2-.42.2-.83c0-1.82-.05-3.42,0-4.83a34.34,34.34,0,0,0-6.17,1.26c-.18.11-.43-.1-.74-.64s-.14-.71.52-.54c.78-.19,1.62-.35,2.56-.51a7.75,7.75,0,0,0,.45-1.24c.11-.42.18-.76.22-1-.26.11-.42.09-.45-.07a2.81,2.81,0,0,0-.33-.74c-.18-.25-.18-.38,0-.4a2.72,2.72,0,0,0,.52,0c.74-.16,1.84-.36,3.26-.63a.25.25,0,0,0,.11,0c0-.92-.06-1.49-.06-1.74a2.35,2.35,0,0,0-1.22.45c-.13.2-.32-.06-.54-.72a1,1,0,0,1-.13-.38.57.57,0,0,0-.14.23,10.24,10.24,0,0,1-1.82,1.95c-.43.3-.72.43-.92.38S108.48,39.62,108.84,39.24Zm4.65,4c0-.91,0-1.72,0-2.43l-.29.06a15.2,15.2,0,0,0-1.75.38c.26.12.35.27.26.43a.62.62,0,0,0-.18.47c0,.23-.11.52-.18.88s-.18.49-.22.61Z"/>
  <path d="M111.36,57.42a4,4,0,0,0-.21-1.44,2.29,2.29,0,0,0-.71-.84v-.35H118V57h-.36l-1.39-1.24a1.72,1.72,0,0,0-.92-.27h-2.23v4h1.31a3.42,3.42,0,0,0,1.46-.23,2.76,2.76,0,0,0,1-.83h.36v2.85h-.36a3.29,3.29,0,0,0-1-.83,3.65,3.65,0,0,0-1.46-.25h-1.31v3.74a4,4,0,0,0,.21,1.44,1.88,1.88,0,0,0,.71.83v.36h-3.59v-.36a2,2,0,0,0,.71-.83,3.87,3.87,0,0,0,.21-1.44Z"/>
  <path d="M108.61,80.18a8.12,8.12,0,0,0,0,3.08c.18.43.15.64-.11.64a1.77,1.77,0,0,1-1-.23c-.43-.2-.61-.34-.52-.41a2.15,2.15,0,0,0,.18-.24,17.53,17.53,0,0,1,1.13-2.68,3.68,3.68,0,0,0-.59.41c-.13.2-.31,0-.54-.63s-.29-.92-.09-.9a3,3,0,0,0,.81-.21,21.92,21.92,0,0,0,1.6-2.06l0,0a2.63,2.63,0,0,0-.94.11,2.91,2.91,0,0,0-1.06.43q-.17.21-.27,0c-.07-.15-.18-.36-.33-.65s-.12-.43,0-.47c.54,0,1.12-.5,1.75-1.6s1-1.78,1.28-2.14.43-.62.55-.83.27-.15.51,0a4.16,4.16,0,0,1,.5.57c.15.18.13.31-.05.36a12,12,0,0,0-1.42,1.73c-.71.92-.94,1.37-.65,1.33s.7-.12,1-.19c.38-.56.74-1,1.06-1.5.11-.25.27-.31.5-.14a6.38,6.38,0,0,0,.69.47c.21.14.18.3-.11.48a9.29,9.29,0,0,0-1.93,1.89,7.49,7.49,0,0,0-1.22,1.69,4.7,4.7,0,0,0,.74-.23.69.69,0,0,0,.41-.2,1,1,0,0,1,.83-.81,1.22,1.22,0,0,1,1.19.36,2.3,2.3,0,0,1,.65.88c0,.24,0,.38-.18.44a2,2,0,0,1-.74.12c-.63.06-.87,0-.67-.11a1,1,0,0,0,.36-.41c.13-.56,0-.86-.54-1a.62.62,0,0,0-.52.27c-.14.18-.13.54.09,1,0,.25,0,.36-.11.32a12.73,12.73,0,0,0-2.32.94A.06.06,0,0,0,108.61,80.18Zm1,2a2.18,2.18,0,0,1,0-1.58c.25-.43.47-.51.66-.25a1.23,1.23,0,0,1,.18.54,1.8,1.8,0,0,0,.24.74,6.06,6.06,0,0,1,.27.61c0,.07,0,.16-.13.25a.41.41,0,0,1-.48,0l-.54-.17C109.65,82.34,109.56,82.28,109.56,82.19Zm4.41-2a27.16,27.16,0,0,1,0-3.26c0-1.12,0-2.11.07-3,0-.56.14-.82.39-.8.92-.28,1.9-.56,3-.79a3.15,3.15,0,0,1,1.44,0c.56.09.84.2.84.31s0,.21-.21.5a3.51,3.51,0,0,0-.33,1.91c0,1-.07,2.3-.07,3.89a7,7,0,0,0,.24,2.57l.48,0a5.07,5.07,0,0,0,1.44,0c.22-.08.43.12.69.55a2.25,2.25,0,0,1,.25,1.12c-.07.32-.16.45-.25.36a7.62,7.62,0,0,0-2.56-.65,10.44,10.44,0,0,0-2.5,0c-.88.13-1.71.27-2.51.4s-1.45.27-1.94.38-.79.21-.86.36-.4.11-.56-.34-.18-.65,0-.71a21.47,21.47,0,0,0,2.72-.66A5,5,0,0,0,114,80.18Zm-2.48,1.38a2,2,0,0,1-.27-1.24c.16-.5.38-.65.63-.43a1.22,1.22,0,0,1,.27.39,1.34,1.34,0,0,0,.41.54,4,4,0,0,1,.4.44.31.31,0,0,1-.06.29.46.46,0,0,1-.48.18c-.25,0-.45,0-.6,0S111.52,81.67,111.49,81.56Zm3.67.42a23.14,23.14,0,0,1,2.45-.4h0a8.58,8.58,0,0,0,.2-2.18c-.08-1-.13-2.25-.13-3.71a5.88,5.88,0,0,0-.31-2.41,1.31,1.31,0,0,0-1.26.2,5.22,5.22,0,0,0-.72.61,4.19,4.19,0,0,0-.23,1.46.52.52,0,0,0,.49,0,5.33,5.33,0,0,1,.81-.2c.14,0,.23.09.3.39s0,.49-.12.53a7.84,7.84,0,0,0-.76.27,2,2,0,0,0-.79.46,13.27,13.27,0,0,0-.08,1.35.51.51,0,0,0,.58.06c.27-.07.58-.16.9-.27.16-.06.27.09.34.41s0,.54-.1.58a7.41,7.41,0,0,0-.83.31,2,2,0,0,0-.92.66A7.77,7.77,0,0,0,115.16,82Z"/>
  <path d="M120,93.64a1.66,1.66,0,0,1,0,.32c0,.11-.07.17-.22.17a.59.59,0,0,1-.27,0,.85.85,0,0,1-.25,0,8,8,0,0,0-.88-.17c-.27,0-.58,0-.88,0h-.8a6.59,6.59,0,0,0-.75,0v.54c0,.61,0,1.24,0,1.87s.07,1.25.13,1.88.09,1.2.16,1.76a14,14,0,0,0,.31,1.75,1.62,1.62,0,0,0,0,.18,1,1,0,0,1,0,.25.23.23,0,0,1-.22.11,1.61,1.61,0,0,1-.45-.16c-.2-.09-.45-.22-.7-.36a7.09,7.09,0,0,1-.72-.38c-.2-.11-.36-.18-.47-.25a3.56,3.56,0,0,1-.38-.2l-.48-.27c-.15-.09-.29-.2-.44-.31a1.43,1.43,0,0,1-.34-.25s-.09-.07-.12-.14a.33.33,0,0,1-.08-.18s0,0,0,0h0a.27.27,0,0,0,.11,0l.11.05a3.89,3.89,0,0,0,.92.24,8.23,8.23,0,0,0,.93.07.65.65,0,0,0,.2,0,.26.26,0,0,0,.2-.09s.05-.07.07-.18a2.4,2.4,0,0,1,0-.29,1.56,1.56,0,0,1,0-.3V99c0-.63,0-1.24-.06-1.85s0-1.23,0-1.88c-.36.45-.71.87-1.07,1.28s-.7.87-1,1.3l-.25.32a4.44,4.44,0,0,0-.4.54,4.09,4.09,0,0,0-.4.53,1,1,0,0,0-.16.32,1,1,0,0,1,0,.23c0,.09,0,.15-.09.18a.7.7,0,0,1-.24.09,1.77,1.77,0,0,0-.25.08c-.34.12-.72.25-1.1.36a4.66,4.66,0,0,1-1.15.18.87.87,0,0,1-.2,0,1.52,1.52,0,0,1-.29,0,.5.5,0,0,1-.27-.07c-.07,0-.12-.06-.12-.09s0-.11.12-.18l.18-.11c.56-.38,1.12-.76,1.64-1.15a11.94,11.94,0,0,0,1.52-1.3c.52-.54,1-1.13,1.54-1.75A16.13,16.13,0,0,0,114,94.05c-.39,0-.75.11-1.11.18l-1.06.27c-.33.08-.63.17-.92.27l-.9.33-.27.09-.29.07c-.11,0-.24-.09-.36-.31a3.66,3.66,0,0,1-.42-.57,1.14,1.14,0,0,1-.19-.56s0-.09.18-.11a.69.69,0,0,0,.23,0c.45,0,.94-.12,1.41-.19l1.38-.18c.49-.06,1-.13,1.5-.24s1-.14,1.47-.23l0-.24c0-.23,0-.46,0-.7a4.51,4.51,0,0,0,0-.72c0-.18-.05-.38-.09-.59s-.09-.36-.14-.58a.23.23,0,0,0,0-.14s0-.08,0-.15a.19.19,0,0,1,.07-.16.65.65,0,0,0,.18,0c.26,0,.51,0,.76,0s.52.09.78.12l.23.09a.27.27,0,0,1,.11.24l-.09.18a2.23,2.23,0,0,1-.09.22,1.5,1.5,0,0,0-.16.48,5.36,5.36,0,0,0-.1.6,5.3,5.3,0,0,1,0,.57c0,.2,0,.38,0,.54a9.51,9.51,0,0,0,1.24-.18,9.66,9.66,0,0,0,1.21-.25l.22-.07a1.14,1.14,0,0,0,.25,0,.59.59,0,0,1,.23.16l.34.36c.11.13.2.27.31.4a1.36,1.36,0,0,0,.18.29A.86.86,0,0,1,120,93.64Z"/>
  <path d="M112.78,108.78a.44.44,0,0,1,0,.14.24.24,0,0,1-.06.14,2.52,2.52,0,0,0-.16.67c0,.27,0,.58-.07.9s0,.63,0,.92v1.87a5.83,5.83,0,0,0,.09,1.1.33.33,0,0,0,0,.18.62.62,0,0,0,0,.18c0,.09-.08.16-.18.22l-.38.09h-.72a.87.87,0,0,1-.2,0A.12.12,0,0,1,111,115a3.1,3.1,0,0,1,0-.43,3.44,3.44,0,0,1,0-.43c0-.42,0-.81,0-1.23s0-.79,0-1.22,0-1-.07-1.48-.07-1-.13-1.46a.89.89,0,0,1,0-.27.18.18,0,0,1,.07-.16.45.45,0,0,1,.18,0h.34a1.84,1.84,0,0,1,.4.06l.39,0,.33.09.2.07A.18.18,0,0,1,112.78,108.78Zm4.29-.92s0,.11,0,.18a.49.49,0,0,1,0,.18,1.59,1.59,0,0,0-.07.41,4.75,4.75,0,0,1,0,.51v1.65c0,.26,0,.51,0,.74,0,.4,0,.79,0,1.21s0,.84,0,1.26-.08.84-.11,1.26-.09.83-.16,1.19a7.19,7.19,0,0,0-.18.88,6.55,6.55,0,0,0-.08.9.83.83,0,0,0,.06.29,2.06,2.06,0,0,1,.07.29.5.5,0,0,1-.11.27,2,2,0,0,1-.2.25,3.61,3.61,0,0,1-.81.63,4.18,4.18,0,0,1-1,.5,6.66,6.66,0,0,1-1.12.36,6.85,6.85,0,0,1-1,.11.54.54,0,0,1-.15,0c-.07,0-.11,0-.11-.07a.37.37,0,0,1,.13-.22.94.94,0,0,1,.2-.16c.32-.29.66-.59,1.06-.9a5.67,5.67,0,0,0,.92-1,7.48,7.48,0,0,0,.7-1.51,7.93,7.93,0,0,0,.36-1.68c.07-.56.11-1.12.15-1.69s0-1.12,0-1.68v-.9c0-.32,0-.63,0-1a7.45,7.45,0,0,0-.08-.94c0-.3-.07-.61-.11-.88,0-.09,0-.2-.09-.3a2.44,2.44,0,0,1,0-.27.16.16,0,0,1,.14-.18,1.06,1.06,0,0,0,.27,0h.38a3.25,3.25,0,0,1,.59.07,1.32,1.32,0,0,1,.4.11A.25.25,0,0,1,117.07,107.86Z"/>
  <path d="M120.81,129.59a.24.24,0,0,1,0,.14.56.56,0,0,0-.07.13c-.22.34-.43.72-.7,1.08s-.56.7-.89,1-.63.68-.95,1l-.94.9c-.73.65-1.46,1.24-2.16,1.78a15.24,15.24,0,0,1-2.37,1.5,2.47,2.47,0,0,0-.42.27.76.76,0,0,1-.43.16.85.85,0,0,1-.31-.06l-.27-.1a2.54,2.54,0,0,1-.79-.49,3,3,0,0,1-.63-.72,2,2,0,0,1-.32-1.15,4.81,4.81,0,0,1,.2-1.39,10.11,10.11,0,0,1,.36-1.37.67.67,0,0,1,.05-.23.52.52,0,0,0,0-.22.63.63,0,0,0-.25-.45l-.5-.38a1.82,1.82,0,0,1-.29-.19.19.19,0,0,1-.11-.18c0-.06.06-.11.16-.17a1.14,1.14,0,0,1,.26-.05,5.18,5.18,0,0,1,1.42.2,2.63,2.63,0,0,1,1.24.74,3.15,3.15,0,0,1,.2.32,1,1,0,0,1,.11.4.55.55,0,0,1-.15.34,1.11,1.11,0,0,1-.3.21l-.27.11a1.4,1.4,0,0,0-.27.11,1.63,1.63,0,0,0-.44.31,2.43,2.43,0,0,0-.43.5,2.8,2.8,0,0,0-.36.56,1.07,1.07,0,0,0-.14.52v.36a.86.86,0,0,0,.07.38.71.71,0,0,0,.18.3.43.43,0,0,0,.34.13,2.61,2.61,0,0,0,.7-.11,5.7,5.7,0,0,0,.83-.3,8.23,8.23,0,0,0,1.35-.69,14.17,14.17,0,0,0,1.35-.81c.42-.27.83-.54,1.21-.83s.67-.45.94-.64c.59-.44,1.18-.89,1.78-1.39s1.11-1,1.69-1.46c0,0,0-.05.11-.11a.75.75,0,0,1,.12-.07S120.78,129.55,120.81,129.59Zm-7.38-.6a.24.24,0,0,1-.14.25.85.85,0,0,1-.31.06,2.52,2.52,0,0,1-.57-.07,3,3,0,0,1-.65-.18,3.78,3.78,0,0,1-.61-.28,1.54,1.54,0,0,1-.47-.28.64.64,0,0,1-.18-.29.79.79,0,0,1-.06-.32,2.25,2.25,0,0,1,.06-.49.89.89,0,0,1,.09-.34,1.37,1.37,0,0,1,.18-.44,1.68,1.68,0,0,1,.27-.34.37.37,0,0,1,.3-.14.48.48,0,0,1,.24.12.73.73,0,0,1,.14.26,2.78,2.78,0,0,0,.27.63,4.25,4.25,0,0,0,.42.55,2.39,2.39,0,0,0,.46.49,4.41,4.41,0,0,1,.45.52.23.23,0,0,0,.08.13A.61.61,0,0,0,113.43,129Zm6.63-1.55a2.19,2.19,0,0,1,0,.22c0,.11,0,.23-.09.34s-.05.23-.09.34a.53.53,0,0,1-.09.2.5.5,0,0,1-.32.15.21.21,0,0,1-.18-.13,1.3,1.3,0,0,0-.15-.2c-.23-.34-.48-.67-.73-1s-.51-.61-.8-.93c0,0,0,0-.09-.1a.16.16,0,0,1,0-.1s0-.06,0-.08h.09a2.32,2.32,0,0,1,.45.09l.61.2.59.27a3.7,3.7,0,0,1,.43.24l.27.19A.45.45,0,0,1,120.06,127.44Zm1.65-1.19c0,.08,0,.17,0,.24a.91.91,0,0,1-.06.32.79.79,0,0,1,0,.29.23.23,0,0,1-.06.18.51.51,0,0,1-.37.18c-.06,0-.11,0-.18-.11a.38.38,0,0,1-.13-.18c-.29-.3-.56-.61-.83-.9s-.56-.57-.88-.84a.87.87,0,0,1-.11-.09.21.21,0,0,1,0-.11c0-.06,0-.09.11-.09h.16a1.85,1.85,0,0,1,.41.07c.18,0,.38.09.6.16l.57.2a1.75,1.75,0,0,0,.43.14,1.41,1.41,0,0,1,.35.2A.49.49,0,0,1,121.71,126.25Z"/>
  <path d="M120.4,148.92a.62.62,0,0,1-.16.32.47.47,0,0,1-.31.2.67.67,0,0,1-.27-.07c-.09,0-.18-.06-.23-.09a4.06,4.06,0,0,0-1-.25,7.84,7.84,0,0,0-1-.06c-.41,0-.82,0-1.24,0s-.83,0-1.22.07a15.44,15.44,0,0,1-.26,2,17.47,17.47,0,0,1-.45,2,2.34,2.34,0,0,0-.09.69,1.31,1.31,0,0,0,.06.38,2.35,2.35,0,0,0,.07.23.6.6,0,0,1-.07.18l-.18.18a1.08,1.08,0,0,1-.2.18.27.27,0,0,0-.14.11c-.27.18-.6.38-.94.59a7.87,7.87,0,0,1-1.1.52c-.21.08-.41.15-.59.2a1.85,1.85,0,0,1-.58.09h-.18a.13.13,0,0,1-.14-.11.21.21,0,0,1,.09-.16.47.47,0,0,0,.18-.14c.52-.52,1-1,1.35-1.46a7.17,7.17,0,0,0,.9-1.32,7.79,7.79,0,0,0,.63-1.76,16.67,16.67,0,0,0,.32-2.32c-.72.09-1.44.21-2.14.36s-1.4.3-2.11.5l-.32.11a1,1,0,0,1-.36.05.34.34,0,0,1-.25-.07.68.68,0,0,1-.18-.14,1.94,1.94,0,0,1-.29-.29,3.22,3.22,0,0,1-.33-.38c-.12-.18-.21-.3-.21-.39s0-.15.18-.17a.77.77,0,0,0,.27,0c.32,0,.66-.06,1-.11s.7-.07,1-.14c.65-.08,1.26-.17,1.87-.27s1.21-.13,1.82-.22v-.88c0-.29,0-.56,0-.89s0-.59,0-.9a5,5,0,0,0-.09-.84.94.94,0,0,0-.06-.31c0-.11,0-.2,0-.3s0-.17.08-.18a.38.38,0,0,1,.19,0c.26,0,.51,0,.76.05a4.91,4.91,0,0,1,.76.17,1.06,1.06,0,0,1,.28.1.41.41,0,0,1,.17.24l-.22.43a2.39,2.39,0,0,0-.23.74c0,.29-.08.58-.11.9a5.23,5.23,0,0,0,0,.79c0,.27,0,.51,0,.72.38,0,.77-.07,1.15-.12s.77-.06,1.17-.11l.56-.09a5.44,5.44,0,0,0,.56-.13l.21-.09.24,0a.55.55,0,0,1,.19.09l.29.25a2.67,2.67,0,0,1,.31.36c.11.12.21.25.32.36a2.59,2.59,0,0,1,.27.36A.56.56,0,0,1,120.4,148.92Z"/>
  <path d="M112.35,165.33a.75.75,0,0,1-.07.22,1.42,1.42,0,0,1-.13.22c-.12.25-.27.54-.39.86a8,8,0,0,0-.34.9c-.09.29-.2.61-.29.92s-.2.65-.29.93-.14.38-.22.64a4,4,0,0,0-.09.68.31.31,0,0,0,0,.18.65.65,0,0,0,0,.2.45.45,0,0,1-.11.27,1.94,1.94,0,0,0-.2.21,6.07,6.07,0,0,1-1.55,1.05A4.8,4.8,0,0,1,107,173a.65.65,0,0,1-.18,0c-.08,0-.11,0-.11-.09a.32.32,0,0,1,.07-.18.44.44,0,0,1,.16-.14,10.92,10.92,0,0,0,1.91-2.07,9.4,9.4,0,0,0,1.08-2.42c.11-.41.2-.81.31-1.22a4.84,4.84,0,0,0,.16-1.26c0-.13,0-.23,0-.36v-.36a1,1,0,0,1,0-.22s0-.09.14-.1a1.08,1.08,0,0,1,.31.05c.14,0,.29,0,.47.09l.45.14a1.26,1.26,0,0,1,.3.13l.2.13A.34.34,0,0,1,112.35,165.33Zm9.2,1.61a.62.62,0,0,1-.07.18.94.94,0,0,1-.11.18,13.27,13.27,0,0,1-1,1.26c-.39.39-.79.77-1.22,1.13a11,11,0,0,1-1.35,1c-.45.27-.94.54-1.39.8l-.46.23-.44.23a4.1,4.1,0,0,0-.41.26,1.76,1.76,0,0,0-.4.27l-.25.19a.28.28,0,0,1-.29.09c-.07,0-.14,0-.2-.16a1.23,1.23,0,0,1-.09-.34,2.73,2.73,0,0,1-.09-.42,2.73,2.73,0,0,0,0-.41,2,2,0,0,0,0-.36v-.23a1.74,1.74,0,0,1,0-.29,3.32,3.32,0,0,1,0-.43,2.75,2.75,0,0,1,0-.47,3.1,3.1,0,0,1,0-.43v-1.26c0-.4,0-.81,0-1.23v-1.15c0-.38,0-.76,0-1.13a.92.92,0,0,0-.07-.31.77.77,0,0,1,0-.27c0-.13.07-.2.21-.24l.38,0c.07,0,.18,0,.4,0a3.31,3.31,0,0,1,.59.1,1.89,1.89,0,0,1,.45.17c.15,0,.2.11.2.21a.53.53,0,0,1-.05.2,1.09,1.09,0,0,1-.17.22c-.07.07-.12.16-.18.21a.9.9,0,0,0-.14.22.92.92,0,0,0-.16.43,5.33,5.33,0,0,0-.11.63,11.22,11.22,0,0,0-.13,1.3c0,.43,0,.81,0,1.1s0,.37,0,.57,0,.36,0,.58v.2a.44.44,0,0,0,0,.2.29.29,0,0,0,.09.14.27.27,0,0,0,.18.07,1.4,1.4,0,0,0,.31,0l.29-.07a7.57,7.57,0,0,0,1.4-.56,13.13,13.13,0,0,0,1.37-.74c.42-.27.87-.54,1.3-.85s.84-.56,1.26-.84l.16-.11a.33.33,0,0,1,.18-.07S121.53,166.88,121.55,166.94Z"/>
  <path d="M121.59,183.41a16.32,16.32,0,0,1-1,5.31c-.24.36-.51.41-.76.14a4.28,4.28,0,0,0-.79-.54,6.14,6.14,0,0,1-1-1c0,.41,0,.83,0,1.26,0,1.28,0,2.49-.06,3.66a15.11,15.11,0,0,0,0,1.83c.2.33.08.47-.43.4s-.68-.13-.57-.22a2.79,2.79,0,0,0,.16-1c0-.63-.06-1.33-.09-2.1,0-.36-.07-.92-.09-1.62-.07.05-.25,0-.49-.07a2.77,2.77,0,0,1-.92-.62c-.32-.23-.38-.34-.16-.34a5.43,5.43,0,0,0,.58,0c.32,0,.52-.07.59-.25a.91.91,0,0,0-.11-.47,2.51,2.51,0,0,0-.34-.25.73.73,0,0,0-1,.38,1,1,0,0,0-.14.48.22.22,0,0,1-.25.24,10,10,0,0,0-1.61.5,2.46,2.46,0,0,0-1,.59c0,.15-.2.06-.49-.27a1,1,0,0,1-.27-.28c0,.37,0,.79,0,1.2.11,1.15,0,1.62-.2,1.42s-.61-.41-1-.66a4.62,4.62,0,0,1-1.19-.94c-.44-.5-.63-.77-.6-.84s.13-.06.27,0a2.17,2.17,0,0,0,1.34.6c.32,0,.46-.42.45-1.12s-.06-1.66-.06-2.85-.07-2.66-.11-4.46c0-.34-.23-.43-.66-.34s-.71.25-.74.43-.09.72-.13,1.46a.41.41,0,0,0,.47.11l.2-.08q.21,0,.27.36c0,.29,0,.45-.13.47a.42.42,0,0,0-.14.11,1.65,1.65,0,0,0-.78.43c0,.29-.07.56-.1.83a.45.45,0,0,0,.43.05l.4-.16c.14,0,.25.11.3.4s0,.45-.09.48a1.91,1.91,0,0,0-.36.17,1.76,1.76,0,0,0-1,.9,3.13,3.13,0,0,0-.1.77.82.82,0,0,0,0,.54.48.48,0,0,1-.09.42,7.13,7.13,0,0,1-2.07,2.21c-.32.18-.41.13-.25-.18a18,18,0,0,0,1.53-2.83,13.42,13.42,0,0,0,.52-3.29c.07-1.3.09-2.38.09-3.26-.07-.42,0-.61.22-.61a1.86,1.86,0,0,0,.67-.15,5.35,5.35,0,0,1,2.3-.56c.81.27,1,.56.77.85s-.43.58-.43,1.19,0,1.64,0,3.08h0c.5-.16,1.22-.38,2.18-.61,0-.2,0-.62,0-1.3h0a1.06,1.06,0,0,0-.71.13c-.19.12-.34,0-.37-.22a4.39,4.39,0,0,0-.29-.77c-.15-.26,0-.37.43-.35a5.25,5.25,0,0,0,1-.18c0-.18,0-.38,0-.59,0-1.82-.09-2.9-.15-3.26,0-.2,0-.29.29-.25a6,6,0,0,1,.9.18c.33.11.36.27.18.47s-.3.57-.27,1.29c0,.53,0,1.17,0,1.89a4.77,4.77,0,0,1,.84-.2c.22,0,.35.15.38.47s0,.58-.18.63c-.4.17-.76.33-1.08.49a4.41,4.41,0,0,0,0,1.31c.52-.14,1.22-.3,2.1-.52l.06,0c0-.46-.06-.7-.06-.77a1.12,1.12,0,0,1-.05-.27.3.3,0,0,1-.09-.22c-.11-.12.09-.19.67-.21s1-.27,1.71-.49a3.62,3.62,0,0,1,1.87-.05c.88.25,1.22.47,1,.65A1,1,0,0,0,121.59,183.41Zm-10.17,3c0,.79,0,1.62,0,2.43a1.15,1.15,0,0,1,.31-.16.47.47,0,0,0,.27-.25,9.18,9.18,0,0,0,1-1.7.86.86,0,0,0,0-.86,4.08,4.08,0,0,0-1,.34C111.7,186.43,111.51,186.48,111.42,186.43Zm5.22-1.19c-.63.07-1.3.18-2,.29a12.58,12.58,0,0,0-.73,1.13c-.42.65-.58,1.05-.47,1.19s.34.06.93-.07a.56.56,0,0,0,.38-.23,1.62,1.62,0,0,1,.45-.4,1,1,0,0,1,1.1.09,1.45,1.45,0,0,1,.47.49,1.17,1.17,0,0,0,.14.3c0-.41,0-.84,0-1.33s-.06-1-.06-1.4A.42.42,0,0,1,116.64,185.24Zm2.91,1.95a8.57,8.57,0,0,0,.44-4c0-.36-.27-.51-.67-.45a5.94,5.94,0,0,0-1.13.29,1.09,1.09,0,0,1-.08.14A6.63,6.63,0,0,0,118,185c0,.58,0,1.17,0,1.76a4.55,4.55,0,0,0,1.06.6A.47.47,0,0,0,119.55,187.19Z"/>
  <path d="M113.22,206.86c0-1.4-.06-2.7,0-3.91-.29.51-.59,1-1,1.5a11.19,11.19,0,0,1-1.62,1.82c-.54.45-.81.83-.81,1.11a1.05,1.05,0,0,1-.4.69,4.23,4.23,0,0,1-3,.59c-.18,0-.2-.11,0-.25.59-.32,1.31-.77,2.18-1.3a14.79,14.79,0,0,0,2.83-3.27,9.28,9.28,0,0,0,1.24-2.43l-.31.07a6.45,6.45,0,0,0-2.07.74c-.18.16-.45-.06-.84-.69s-.38-.84.07-.83a2.5,2.5,0,0,0,1.08-.1,12.44,12.44,0,0,1,1.91-.37l.7-.1c0-1.14,0-2.18.07-3.1a3.11,3.11,0,0,0,0-.65c-.08-.11,0-.14.41-.11s.76.17,1.06.26.33.14.15.32a1,1,0,0,0-.33.88,22,22,0,0,0-.09,2.2l1.53-.2a2.46,2.46,0,0,0,1.19-.32c.25-.15.4-.13.45.05a2,2,0,0,0,.36.74.88.88,0,0,1,.18.65.3.3,0,0,1-.32.2,11.22,11.22,0,0,0-2.49-.06c-.3,0-.61,0-.93.07a.62.62,0,0,0,0,.27,4.78,4.78,0,0,0,.32.44,13.7,13.7,0,0,0,1.53,1.78,9.34,9.34,0,0,0,1.89,1.65,11,11,0,0,0,2.43,1.28,5.88,5.88,0,0,1,1.93,1.1c.11.18.07.29-.11.29a21.08,21.08,0,0,1-2.81,0c-1.24-.07-1.87-.27-1.87-.61a2.62,2.62,0,0,0-.22-.86,4.05,4.05,0,0,0-.93-1.14,6,6,0,0,1-1.34-1.37,2.58,2.58,0,0,0-.86-.73c0,1.09,0,2.26,0,3.51l1.12-.35c.29-.1.58.13.9.69s.22.79-.2.67a2.24,2.24,0,0,0-1.33.12l-.49.13c0,.86,0,1.76,0,2.68s0,1.3-.19,1.3a4.12,4.12,0,0,1-1.25-.49c-.27-.13-.25-.25,0-.41a.69.69,0,0,0,.4-.56c0-.79-.06-1.57-.06-2.32a3.7,3.7,0,0,1-.48.07,3.24,3.24,0,0,0-1.5.34c-.21.16-.37,0-.46-.52s-.08-.74.12-.76A16.78,16.78,0,0,0,113.22,206.86Z"/>
  <path d="M82.64,44.74a3.71,3.71,0,0,1-.24,1c-.12.36-.3.72-.42,1a2.16,2.16,0,0,1-.3.54.9.9,0,0,1-.6.18,1.3,1.3,0,0,1-.6-.12c-.24-.06-.6-.18-1-.3a4.5,4.5,0,0,1-1-.3,2.32,2.32,0,0,1-.66-.18,26.08,26.08,0,0,0-4.44-1,33.71,33.71,0,0,0-4.44-.3,83.52,83.52,0,0,0-11.34.84,100.5,100.5,0,0,0-11.1,2.4l-.66.18c-.24,0-.42.06-.66.06a1.64,1.64,0,0,1-1-.24,11.55,11.55,0,0,1-.9-1c-.3-.54-.66-1.08-1-1.68a3.58,3.58,0,0,1-.54-.9,1.38,1.38,0,0,1-.18-.54c0-.18.12-.3.48-.42a1.52,1.52,0,0,0,.72-.12c4.68-.78,9.48-1.44,14.28-2s9.6-1,14.46-1.5l1.68-.18a9.16,9.16,0,0,0,1.8-.18,7,7,0,0,0,1-.36,3,3,0,0,1,1-.18,1.85,1.85,0,0,1,.54.24,9.52,9.52,0,0,1,1,.66c.36.3.72.6,1.2,1l1.14,1.14a12.36,12.36,0,0,0,1,.9c.24.3.42.54.54.66a.65.65,0,0,0,.18.42A1,1,0,0,0,82.64,44.74ZM73.4,24.28V25c0,.36-.06.66-.06,1s-.06.48-.06.66a.87.87,0,0,1-.12.42.74.74,0,0,1-.48.3c-.12,0-.24.06-.36.06s-.24.06-.36.06q-4.23.72-8.46,1.26c-2.82.3-5.58.6-8.4,1l-1.68.18a11,11,0,0,1-1.56.12,2,2,0,0,1-.9-.18,2.23,2.23,0,0,1-.54-.66,8.19,8.19,0,0,1-.66-1.14,9.05,9.05,0,0,1-.9-1.68c-.12-.3-.24-.6-.36-.84s-.06-.24-.06-.36.06-.18.24-.3h.42c.48,0,1,.06,1.56.06a13.8,13.8,0,0,0,1.68.12,70.79,70.79,0,0,0,10-.72c3.3-.42,6.54-1,9.84-1.74a2.55,2.55,0,0,1,.66-.12c.12,0,.24.12.36.24a4.13,4.13,0,0,1,.18.48,2.25,2.25,0,0,0,.06.6Z"/>
  <path d="M83.78,103.33a6.48,6.48,0,0,1-.24,1.14c-.12.48-.36.78-.72.78a1.36,1.36,0,0,1-.78-.18,5.2,5.2,0,0,0-.72-.3,21.69,21.69,0,0,0-2.88-.78c-1-.12-2.1-.18-3.12-.24-1.8,0-3.48.06-5.1.18s-3.48.3-5.4.48a6.23,6.23,0,0,1,.72.42c.3.18.66.36,1,.6s.66.42,1,.6a2.19,2.19,0,0,1,.42.6,2.49,2.49,0,0,1-.24.72c-.12.24-.3.54-.48.84a3.34,3.34,0,0,1-.54,1,7.28,7.28,0,0,0-.3.84q-.72,2.61-1.44,5c-.48,1.62-1,3.3-1.5,5a4.3,4.3,0,0,0-.24,2c0,.72,0,1.38.06,2a4.18,4.18,0,0,1-.12,1,2.27,2.27,0,0,1-.6.78c-1,.72-1.86,1.38-2.64,2s-1.68,1.08-2.46,1.5a22.09,22.09,0,0,1-2.7,1.26,31.51,31.51,0,0,1-3.24.84,6.3,6.3,0,0,1-.78.12,2.76,2.76,0,0,1-.6-.06.32.32,0,0,1-.36-.36.72.72,0,0,1,.24-.48l.36-.36c.9-.84,1.8-1.68,2.7-2.58s1.56-1.68,2.34-2.58,1.32-1.8,2-2.82,1.14-2,1.8-3.3A27.93,27.93,0,0,0,61.46,112a44,44,0,0,0,.78-7.38c-3.9.48-7.68,1.08-11.46,1.74a46.64,46.64,0,0,1-3.06,4,24.69,24.69,0,0,1-3.6,3.48c-.24.12-.48.36-.84.6a1.58,1.58,0,0,1-.9.36.31.31,0,0,1-.3-.24c0-.12-.06-.24-.06-.36a2.64,2.64,0,0,1,.18-.84,4,4,0,0,0,.36-.72c.9-1.8,1.86-3.54,2.94-5.28.9-1.74,1.92-3.6,2.82-5.46.6-1.32,1.2-2.7,1.8-4s1-2.58,1.44-4c.24-.72.48-1.56.72-2.4s.42-1.62.66-2.58a.79.79,0,0,1,.84-.72,2.11,2.11,0,0,1,.72.12,8.81,8.81,0,0,1,.9.54A17.16,17.16,0,0,1,57.2,90c.6.48,1,.84,1.32,1.14a2,2,0,0,1-.06,2.76,5.88,5.88,0,0,0-1.2,1.44c-.36.48-.78,1.08-1.26,1.74-.54.84-1.08,1.68-1.56,2.58s-.9,1.68-1.2,2.4c2.34-.12,4.68-.3,7-.6s4.68-.54,7-.84c1.74-.24,3.48-.54,5.28-.9S76,99,77.84,98.47a5.35,5.35,0,0,1,.6-.3c.24,0,.42-.06.66-.06a1.64,1.64,0,0,1,.84.24,6.35,6.35,0,0,1,.72.6,4.37,4.37,0,0,0,.9,1c.36.36.72.72,1.08,1.14s.54.84.78,1.26A1.92,1.92,0,0,1,83.78,103.33Zm-1.86-12c0,.12-.06.36-.12.72s-.18.78-.3,1.14-.18.78-.3,1.14a2.3,2.3,0,0,1-.3.66,1.5,1.5,0,0,1-1.08.48c-.24,0-.42-.12-.6-.42a4.58,4.58,0,0,0-.48-.66c-.78-1.14-1.62-2.22-2.46-3.3A40,40,0,0,0,73.64,88c-.12-.06-.18-.18-.3-.36a.52.52,0,0,1-.18-.36c0-.12,0-.18.12-.24h.3a6.48,6.48,0,0,1,1.5.3c.54.18,1.26.42,2,.72a19.61,19.61,0,0,1,2,.84c.6.3,1.08.54,1.5.78a8.59,8.59,0,0,1,.9.66A1.63,1.63,0,0,1,81.92,91.33Zm5.52-4c0,.24-.06.54-.06.78a3.7,3.7,0,0,1-.18,1.08,2.28,2.28,0,0,1-.18,1,.76.76,0,0,1-.19.6,1.74,1.74,0,0,1-1.19.6A.92.92,0,0,1,85,91a1.57,1.57,0,0,1-.42-.6c-1-1-1.86-2-2.76-3s-1.86-1.86-2.94-2.82a1.59,1.59,0,0,1-.36-.3.52.52,0,0,1-.18-.36c0-.18.12-.3.36-.3h.54c.24,0,.72.12,1.44.24a19.75,19.75,0,0,1,1.92.54c.6.18,1.2.36,1.92.6s1.08.42,1.44.54a4.08,4.08,0,0,1,1.14.66A1.67,1.67,0,0,1,87.44,87.37Z"/>
  <path d="M77.84,178.84q0,.18-.36.54c-.24.24-.48.54-.78.84a5.56,5.56,0,0,1-.84.84c-.24.24-.36.48-.48.6a17.65,17.65,0,0,0-2.22,3.54,26.51,26.51,0,0,1-1.92,3.66q-1.35,2.34-2.88,4.5a41.25,41.25,0,0,1-3.12,4.32,15.71,15.71,0,0,0-1.38,1.92,4,4,0,0,0-.72,2.28,2.29,2.29,0,0,1-.66,1.38,8.71,8.71,0,0,1-1.44.6,38,38,0,0,1-4.68,1,40.19,40.19,0,0,1-4.74.3h-1.8c-.6-.06-1-.18-1-.42s.12-.36.42-.54a5.28,5.28,0,0,0,.6-.36,65.16,65.16,0,0,0,6.42-4,36.19,36.19,0,0,0,5.16-4.38A31.84,31.84,0,0,0,65.6,190,55.19,55.19,0,0,0,69,183a10.83,10.83,0,0,1,.54-1.68,11.18,11.18,0,0,0,.3-1.62,1.47,1.47,0,0,0-.3-.9,5,5,0,0,0-.72-.48,5.32,5.32,0,0,1-.9-.12H67a19.49,19.49,0,0,0-2.94.3c-1,.24-2.16.54-3.36.84s-2.28.72-3.3,1.08-2,.66-2.82,1c-.36.12-.72.3-1.14.48s-.84.48-1.32.72a8.29,8.29,0,0,1-1.32.6,4,4,0,0,1-1,.18,1.81,1.81,0,0,1-1.14-.36c-.36-.24-.72-.48-1.2-.84a11.2,11.2,0,0,1-1.56-1.8,3.35,3.35,0,0,1-.6-1.74,2.35,2.35,0,0,1,.18-.78c.12-.3.24-.48.6-.48a3.72,3.72,0,0,1,1.08.3,2.86,2.86,0,0,0,1.32.3,8.34,8.34,0,0,0,1.62-.18c.54-.06,1.14-.18,1.74-.3s1.2-.24,1.8-.42l1.68-.36c1.38-.3,2.88-.66,4.44-1s3-.54,4.5-.78c1-.12,2-.3,3.18-.54a18.43,18.43,0,0,1,3.18-.3,8.11,8.11,0,0,1,2.28.66c.9.48,1.92,1,2.82,1.62a11,11,0,0,1,1.5,1.26A2.35,2.35,0,0,1,77.84,178.84Zm-5.22-13.32c0,.24-.06.48-.06.72a.92.92,0,0,1-.24.6c-.12.06-.36.12-.72.24a3.78,3.78,0,0,0-.78.18c-1.26.24-2.58.54-3.9.78s-2.7.42-4.08.66-2.76.42-4.14.54-2.7.24-4,.24a2.92,2.92,0,0,1-.72-.06,1.52,1.52,0,0,1-.72-.12c-.18,0-.48-.3-.84-.9a6.38,6.38,0,0,1-.66-1.14,3.66,3.66,0,0,1-.54-1.2c-.12-.3-.18-.48-.24-.66s-.06-.24-.06-.48.12-.3.42-.36a2.92,2.92,0,0,0,.72-.06c2.82-.06,5.7-.24,8.7-.6a46.4,46.4,0,0,0,8.64-1.44c.24-.06.6-.18,1-.3a4.66,4.66,0,0,1,1-.12.58.58,0,0,1,.54.36,1.71,1.71,0,0,0,.24.72,4.86,4.86,0,0,0,.24,1.14A4.57,4.57,0,0,1,72.62,165.52Z"/>
  <path d="M40,263.47a15.61,15.61,0,0,1-4.44-9.06c-.36-.72-.18-1,.48-1a25.53,25.53,0,0,0,5-1.8,14.79,14.79,0,0,1,7.14-1.38c3.18,1,4.44,1.86,3.84,2.46-.84.66-1.5,2.16-2,4.62s-.84,4.14-.6,5.1a.74.74,0,0,1-.84.78c-3.12.24-5.52.84-7,1.92-.36.24-.6.18-.66-.18A4.5,4.5,0,0,0,40,263.47Zm5.82-3.78c1.8-2.64,1.74-4.8-.18-6.42-.42-.42-1.38-.24-2.76.42s-2.34,1.38-2.52,1.86c-.6,2.58.06,4.5,2,5.7.12.12.66-.06,1.62-.48A6.49,6.49,0,0,0,45.86,259.69ZM84,284c-7.62-1.2-11.34-2.16-11.22-2.88s0-1.32.06-2c-.12-2.58-1.68-5.64-4.74-9.36-1.14-1.32-2.28-2.4-3.18-3.36a11.69,11.69,0,0,0-.6,1.32,17,17,0,0,1-4.86,7.5c-2.1,1.68-2.76,3.18-2,4.32.24.54-1,1.38-3.84,2.52s-5,1.5-6.42,1.08c-1.56-.36-1.44-.9.24-1.62.24-.12,1.26-.78,3.24-2.1a36.69,36.69,0,0,0,5.94-5.16,26.75,26.75,0,0,0,5.1-8.94.54.54,0,0,1,.06-.3l-.06.06a19.42,19.42,0,0,0-6.6,1.2c-1.56,1-2.34.9-2.4-.24a20.65,20.65,0,0,0-.54-3c-.36-.9-.06-1.26.9-1.14.9.48,3,.42,6.42-.24,1-.18,1.92-.36,3-.54a14.82,14.82,0,0,0-.06-5.7,1.7,1.7,0,0,1-.24-.78c-2.58.48-4.08,1-4.68,1.56-.48.72-1.14-.12-1.86-2.46s-.9-3.3-.18-3.12c.18.12,2.52-.18,6.9-1a96,96,0,0,0,10-14.4c.24-.84.72-.84,1.44-.06A9.94,9.94,0,0,0,76,237.07c.72.48.78.84.24,1.08A9.77,9.77,0,0,0,73,241.27a48.57,48.57,0,0,1-5.16,5.58A6.49,6.49,0,0,0,66,249.07c1.2-.18,2.58-.42,4.26-.66,2.46-.6,3.66-.6,3.66-.12v2.28c0,1-.66,1.62-1.8,1.86a39.73,39.73,0,0,1-5.46,1.5c-.12.06-.12.12-.06.18a17.78,17.78,0,0,0-.24,5.64v.48c.6-.12,1.14-.24,1.74-.42a42,42,0,0,1,7.86-1.62c.84-.18,1.38,0,1.5.48a2.17,2.17,0,0,0,.9,1.68,6.55,6.55,0,0,1,1.08,2.94c.12,1.32-.54,1.62-1.92.84a13.49,13.49,0,0,0-8.4-.3,6.47,6.47,0,0,0-1.14.36,20.33,20.33,0,0,0,3.3,5.28,33.64,33.64,0,0,0,7.44,7.44,110.76,110.76,0,0,1,10.2,6.42c.47.42.12.72-1,.84A14.61,14.61,0,0,1,84,284ZM55.1,241a2.56,2.56,0,0,0,1.38,0c2.82-1.44,5.82-2.94,9.06-4.56.3-.18.54-.18.72.06s-.06.6-.42,1.08c-1.5,1.74-3.36,3.9-5.52,6.36a1.54,1.54,0,0,0-.72,1.2c-.12.48-.48.6-1,.3a16.1,16.1,0,0,1-3.06-2.4C54.44,241.69,54.26,241,55.1,241Z"/>
  <path d="M71,315.1a1.23,1.23,0,0,1-.3.54,1.31,1.31,0,0,1-.3.18A.52.52,0,0,0,70,316a4.19,4.19,0,0,0-1,.78c-.24.3-.54.6-.84,1-1.14,1.32-2.28,2.76-3.3,4.2s-2.16,2.94-3.24,4.44c-.84,1.08-1.68,2.16-2.58,3.18s-1.74,2.1-2.7,3.18l-.42.42c-.12.18-.3.36-.42.54a6.32,6.32,0,0,1-.42.66,1.38,1.38,0,0,0-.18.54,1.36,1.36,0,0,0,.3.9,2.4,2.4,0,0,0,.66.72c2.16,2,4.2,4.08,6.24,6.12s4,4.14,6.06,6.36a4.38,4.38,0,0,0,.54.6,2.82,2.82,0,0,0,.54.72c.12.24.18.54.3.84a5.49,5.49,0,0,0,.06,1,17.66,17.66,0,0,1-.24,2.22,8.64,8.64,0,0,1-.78,2.58,3.67,3.67,0,0,1-.9,1,2.1,2.1,0,0,1-1.32.48.73.73,0,0,1-.78-.48c-.12-.24-.24-.48-.36-.78a33.71,33.71,0,0,0-1.8-4.38,39.37,39.37,0,0,0-2.22-4.14,43.23,43.23,0,0,0-3.12-4.5,28.45,28.45,0,0,0-3.66-4,19.5,19.5,0,0,0-2-1.5c-.72-.3-1.5-.6-2.34-1a4.13,4.13,0,0,0-.48-.18.65.65,0,0,1-.42-.18.73.73,0,0,1-.36-.72,1.76,1.76,0,0,1,.36-1,9.23,9.23,0,0,0,.72-.78A46.34,46.34,0,0,0,54,330c1.32-1.62,2.52-3.36,3.78-5.16,1.26-2,2.46-4,3.54-6.06s2.1-4.08,3.06-6.3c0-.12.12-.24.24-.48s.12-.24.24-.42.12-.24.24-.36a.51.51,0,0,1,.42-.12,1.44,1.44,0,0,1,.6.12,5.28,5.28,0,0,1,.6.36,6.57,6.57,0,0,0,1.32.66c.42.24,1,.6,1.5,1,.36.3.72.54,1.08.9A4.6,4.6,0,0,1,71,315.1Z"/>
  <path d="M52.22,431.71a50.28,50.28,0,0,1,.6-15.3c-1.08,1.32-2.22,2.52-3.24,3.66a3.57,3.57,0,0,0-1.38,2.52c0,.72-.84,1.38-2.58,2a14.6,14.6,0,0,1-4.26,1.2c-.78.12-1.86.3-3.3.42s-1.2-.48.84-2c2-1.32,4.26-2.88,6.9-4.5a41.06,41.06,0,0,0,7.56-9.06,44.85,44.85,0,0,0-6.6,2.16c-.6.42-1.44-.24-2.64-2s-.66-2.4,1.68-2c2.82-.72,6-1.56,9.66-2.4.42-1.14.84-2.46,1.32-4a16.82,16.82,0,0,0-2.28.78c-1.38.84-2.22,1-2.4.3A12.8,12.8,0,0,0,51,401.35c-.42-.72-.42-1.14.06-1.14A8.34,8.34,0,0,0,52.7,400c1.26-.36,2.88-.72,5-1.2.12-.66.24-1.38.42-2.16a4.5,4.5,0,0,1,.12-1.2c-3.12.36-5.16.84-6.06,1.5-.72.6-1.32,0-1.62-1.8-.48-1.74-.36-2.64.3-2.64a56.77,56.77,0,0,0,7.92-1,30.46,30.46,0,0,0,.36-5.88c-.36-1.26.48-1.62,2.52-1.14s2.88,1.2,2.52,2c-.24.18-.54,1.56-1,4.08,2.16-.48,4.32-1,6.66-1.74.9-.36,1.86.3,2.88,2.16s.66,2.52-.6,2.1-3.06-.12-5.52.54a27.71,27.71,0,0,1-4.26,1.08,3.87,3.87,0,0,0-.18,1.2,11.89,11.89,0,0,0-.48,2.1c1.86-.42,4.62-1,8.34-1.68.48-.18.78.6,1.08,2.34.24,1.92-.36,2.52-1.68,1.86-2.7.24-5.64.6-8.7,1.08-.42,1.56-.84,2.88-1.2,4,1.14-.24,2.4-.48,3.66-.78a81,81,0,0,1,9-1.26c2.82-.24,4.5-.48,5.1-.84.36-.12.66.18.9.78a2.16,2.16,0,0,0,1.14,1.26c.36.24.6,1,.72,2.28s-.42,1.74-1.2,1.38a40.9,40.9,0,0,0-10.62-.42,40.64,40.64,0,0,0,3.24,3.3A29.82,29.82,0,0,0,79.64,417a85.85,85.85,0,0,1,9.84,4.44c.6.42.29.78-.9,1.08a12.3,12.3,0,0,1-4.08.48c-6.9,0-10.44-.3-10.5-1a17.31,17.31,0,0,1-.24-1.74,10.48,10.48,0,0,0-2.4-4.86c-.6,2.1-.72,5.58-.6,10.26.12,5.58.06,8.52-.12,9.12q-.09,3.24-5-1.08c-2.46-1.86-3.84-2.7-4.26-2.64a12.17,12.17,0,0,0-5.16.9,11.48,11.48,0,0,0-2.58,1.26C52.82,433.75,52.34,433.27,52.22,431.71ZM60,413.53c3.12-1,5.64-1.26,7.56-.78l1.56.18c-.24-.24-.48-.42-.72-.66a36.51,36.51,0,0,0-4.8-3.66c-.24.06-.48.12-.66.18-1.92.3-3.66.66-5.22.9-1.2,1.62-2.28,3.3-3.36,4.8C56.48,414.13,58.34,413.83,60,413.53Zm2,9.24c-3.54.9-5.76,1.44-6.6,1.8a7.63,7.63,0,0,0,.36,3.36c.24.54,2.46.3,6.72-.78,1-.36,1.44.06,1.2,1.2s.12,1.86,1.08,2.1c.72.3,1.14.36,1.44.18.36-.48.48-2.82.42-7s-.66-6.72-1.44-7.38-2.58-.66-5.28.06a9.84,9.84,0,0,0-3.48,1.32c-.36.24-.6,1.26-.78,3.06,1,.24,2.88.06,5.82-.54.72-.36,1.2,0,1.32,1S62.54,422.77,62,422.77Z"/>
</svg>
