<svg id="Layer_1" data-name="Layer 1" xmlns="http://www.w3.org/2000/svg" viewBox="0 0 274 1043">
  <defs>
    <style>
      .cls-1 {
        fill: transparent;
      }
    </style>
  </defs>
  <title>film</title>
  <path d="M254-.46H274.3V1043H254Zm16.1,265.63c0-1.44,0-2.89,0-4.33.08-2-.73-3-2.86-2.95s-4.15.08-6.23,0-2.91.92-2.87,2.94c.06,2.71.07,5.42,0,8.13-.06,2.14.74,3.26,3,3.07.72,0,1.45,0,2.17,0C270.7,272,270.08,272.9,270.08,265.17Zm0,31.93c0-1.45,0-2.89,0-4.34.05-1.88-.7-2.88-2.7-2.82a58.46,58.46,0,0,0-6.76.12,3.3,3.3,0,0,0-2.34,2.13,60.79,60.79,0,0,0,0,9.73c0,.76,1.29,1.65,2.18,2.07a7,7,0,0,0,2.68.08C270.74,304,270.07,305,270.08,297.1Zm0,32.12c0-1.45,0-2.9,0-4.34.08-2-.8-3-2.9-2.91s-4.33,0-6.5,0c-1.67,0-2.53.74-2.53,2.43,0,3.16-.14,6.33.1,9.47.06.79,1.25,1.71,2.14,2.13.73.36,1.77.09,2.67.09C270.86,336.07,270.06,336.94,270.08,329.22ZM258.14,488c0,1.26,0,2.53,0,3.79-.07,2.42.84,3.7,3.51,3.44a31.41,31.41,0,0,1,5.4,0c2.12.15,3-.89,3-2.82,0-3,0-5.95,0-8.92,0-1.71-.91-2.43-2.55-2.4H265.1C257.37,481.14,258.17,480.29,258.14,488Zm0-32.28c0,1.45,0,2.89,0,4.33,0,2.2.89,3.33,3.27,3.13a38.33,38.33,0,0,1,5.67,0c2.15.15,3-.94,3-2.86,0-2.7-.07-5.41,0-8.1.1-2.31-.8-3.4-3.16-3.19-.71.06-1.44,0-2.16,0C257.47,449.08,258.15,448.37,258.15,455.75Zm11.94-31.94c0-1.17-.08-2.35,0-3.51.21-2.47-.88-3.46-3.32-3.3a40.7,40.7,0,0,1-5.41,0c-2.52-.17-3.39,1-3.25,3.38.12,2.06,0,4.14,0,6.21,0,4.43.13,4.62,4.53,4.54C270.12,431,270.16,432.84,270.09,423.81Zm0-285.41c0-1.45,0-2.89,0-4.33-.05-2.09-.85-3.41-3.24-3.26a44.39,44.39,0,0,1-5.41,0c-2.38-.15-3.23,1.12-3.28,3.23,0,1.8,0,3.6,0,5.41,0,5.5,0,5.5,5.42,5.5C270.73,145,270.09,145.57,270.09,138.4Zm0,32c0-1.44,0-2.89,0-4.33-.05-2.09-.86-3.4-3.25-3.25a44.39,44.39,0,0,1-5.41,0c-2.38-.15-3.22,1.13-3.27,3.24,0,1.8,0,3.6,0,5.41,0,5.49,0,5.49,5.43,5.49C270.73,177,270.09,177.61,270.09,170.43Zm0,444.77c0-1.27-.07-2.53,0-3.79.16-2.27-.71-3.38-3.11-3.25-2.06.11-4.14.05-6.22,0-1.8,0-2.66.79-2.63,2.61,0,2.25.06,4.51,0,6.76-.12,3.43.25,5,4.73,4.81C269.82,622.14,270.22,623.35,270.09,615.2Zm0,381.06c0-1.26-.07-2.53,0-3.79.14-2.19-.79-3.17-3-3.08s-4.16.06-6.24,0-2.76.89-2.72,2.81c.06,2.53.1,5.07,0,7.59-.11,2.31.8,3.4,3.16,3.2.72-.06,1.44,0,2.17,0C270.79,1003,270.08,1003.67,270.09,996.26Zm0-953c0-1.36-.06-2.72,0-4.07.1-2.08-.84-3-2.91-2.9s-4.16.06-6.23,0c-1.91-.06-2.86.73-2.83,2.71.05,2.7.05,5.42,0,8.12,0,2,.84,2.85,2.78,2.76.81,0,1.62,0,2.44,0C270.76,49.9,270.08,50.62,270.09,43.29Zm0,857.93c0-1.26-.07-2.53,0-3.79.14-2.19-.79-3.17-3-3.07s-4.16.06-6.24,0-2.76.89-2.72,2.81c.06,2.53.1,5.06,0,7.58-.11,2.32.8,3.4,3.16,3.2.72-.06,1.44,0,2.17,0C270.79,907.94,270.08,908.63,270.09,901.22Zm0-889.94c0-1.27-.07-2.54,0-3.79.17-2.32-.79-3.35-3.15-3.22-2,.11-4,.08-6,0s-2.95.91-2.86,3c.07,1.72,0,3.43,0,5.15,0,5.49,0,5.49,5.44,5.49C270.75,17.88,270.08,18.48,270.09,11.28Zm0,857.9c0-1.26-.07-2.53,0-3.79.14-2.19-.79-3.17-3-3.07s-4.16.06-6.24,0-2.76.89-2.72,2.81c.06,2.52.1,5.06,0,7.58-.11,2.32.8,3.4,3.16,3.2.72-.06,1.44,0,2.17,0C270.79,875.9,270.08,876.59,270.09,869.18Zm0-31.85c0-1.35,0-2.71,0-4.06.1-2-.69-3.06-2.83-3a60.64,60.64,0,0,0-6.75.13,3.44,3.44,0,0,0-2.26,2.25,33.55,33.55,0,0,0-.12,5.94c0,5.27,0,5.27,5.39,5.27C270.72,843.87,270.09,844.51,270.09,837.33Zm0,191c0-1.27-.07-2.53,0-3.79.14-2.19-.77-3.18-3-3.08-2.07.09-4.15,0-6.23,0s-2.77.88-2.73,2.81c.06,2.52.1,5.06,0,7.58-.1,2.31.79,3.41,3.15,3.21.72-.06,1.45,0,2.17,0C270.79,1035,270.08,1035.71,270.09,1028.31Zm0-254c0-1.27-.07-2.54,0-3.8.17-2.29-.74-3.36-3.13-3.23-2.07.11-4.15.05-6.23,0-1.82,0-2.64.84-2.6,2.64s0,3.61,0,5.42c0,5.52,0,5.52,5.42,5.52C270.74,780.88,270.09,781.5,270.09,774.31Zm0-32.22c0-1.18-.08-2.36,0-3.52.2-2.46-.84-3.5-3.31-3.33a40.85,40.85,0,0,1-5.42,0c-2.52-.18-3.4,1-3.26,3.38a56.63,56.63,0,0,1,0,6.77c-.16,2.59.86,3.73,3.46,3.46a17,17,0,0,1,1.89,0C270.8,748.83,270.07,749.51,270.09,742.09Zm0-32c0-1.27-.07-2.54,0-3.8.14-2.19-.8-3.16-3-3.06-2,.09-4,.08-6,0s-3.05.69-3,2.83c.07,2.53.1,5.06,0,7.59-.11,2.32.82,3.38,3.17,3.18.72-.06,1.44,0,2.17,0C270.8,716.79,270.07,717.47,270.09,710.06Zm0-159.1c0-1.27-.07-2.53,0-3.79.14-2.18-.77-3.19-3-3.09s-4.16.06-6.23,0-2.78.87-2.74,2.8c.06,2.53.1,5.06,0,7.59-.1,2.3.78,3.41,3.15,3.21.72-.06,1.44,0,2.17,0C270.79,557.67,270.08,558.36,270.09,551Zm0,32c0-1.26-.07-2.53,0-3.79.14-2.18-.77-3.18-3-3.08-2.07.1-4.15.06-6.23,0s-2.77.88-2.73,2.81c.06,2.52.1,5.06,0,7.58-.1,2.31.79,3.41,3.15,3.21.72-.06,1.45,0,2.17,0C270.79,589.71,270.08,590.4,270.09,583ZM258.14,392.51c-.14,7.9.43,6.6,5.44,6.57,6.66,0,6.55,1.45,6.51-7.41,0-5.6,0-5.61-5.58-5.6C257.58,386.09,258.15,385.3,258.14,392.51Zm0-32.25v2.17c0,4.63,0,4.7,4.7,4.62,7.47-.13,7.27,1.61,7.26-7.22,0-6.25.32-5.83-5.66-5.8C257.67,354.06,258.14,353.28,258.14,360.26Zm0-158.57c0,1,.08,2,0,3-.22,2.47.83,3.49,3.31,3.3a47.13,47.13,0,0,1,5.7,0c2.06.1,3.05-.7,3-2.83-.07-1.62,0-3.25,0-4.88.12-5.09-.43-5.48-5.2-5.37C258.48,195,258,193.89,258.14,201.69Zm11.95,32.13c.18-7.47-.44-6.91-5.58-6.88-6,0-6.47-.91-6.38,6.89.07,6.69-.46,6.17,5.86,6.16C270.54,240,270.1,240.66,270.09,233.82Zm0,412.79v-2.43c0-3.89-.06-3.95-3.94-4H264.8c-7.42,0-6.63-.76-6.66,6.65,0,6.28-.44,5.86,5.83,5.85C270.64,652.71,270.1,653.26,270.09,646.61ZM258.14,678.4V680c0,4.73,0,4.73,4.79,4.73h.54c7.39,0,6.59.77,6.62-6.68,0-6.26.43-5.82-5.87-5.81C257.58,672.27,258.14,671.73,258.14,678.4Zm11.95,254.42v-2.43c0-3.91-.06-4-3.92-4h-1.35c-7.44,0-6.65-.77-6.68,6.62,0,6.3-.45,5.88,5.82,5.87C270.63,938.9,270.1,939.46,270.09,932.82Zm0,31.82c0-6.7.58-6.18-6-6.19s-5.88-.4-5.91,6.59c0,6.31-.47,5.93,5.77,5.91C270.74,970.94,270.08,971.5,270.09,964.64ZM258.14,74.69v2.7c0,3.26.24,3.46,3.61,3.48h1.62c7.57,0,6.67.79,6.72-6.85,0-6.09.32-5.66-5.77-5.65C257.49,68.38,258.15,67.82,258.14,74.69Zm11.95,730.9c0-1-.08-2,0-3,.24-2.46-.82-3.54-3.28-3.28a17,17,0,0,1-1.89,0c-7.61,0-6.75-.82-6.79,6.79,0,6.08-.38,5.72,5.71,5.71C270.69,811.82,270.09,812.43,270.09,805.59ZM258.14,519.38c0,1,.08,2,0,3-.24,2.46.79,3.56,3.27,3.3a17,17,0,0,1,1.89,0c7.61,0,6.76.82,6.8-6.78,0-6.1.38-5.74-5.69-5.72C257.56,513.16,258.14,512.52,258.14,519.38Zm11.95-412.59v-2.16c0-4.21,0-4.21-4.23-4.21h-1.08c-7.4,0-6.61-.77-6.64,6.66,0,6.27-.43,5.84,5.85,5.83C270.64,112.9,270.1,113.45,270.09,106.79Z"/>
  <path d="M-.16-.47h20.3V1043.05H-.16ZM2.91,328.92c0,1.44,0,2.88,0,4.32-.09,2.09.89,2.94,2.94,2.88,2.43-.07,4.86-.05,7.3,0,1.91,0,2.85-.78,2.8-2.74,0-1.8,0-3.61,0-5.41.05-6.61.11-6-6-6C2.34,322,2.91,321.06,2.91,328.92Zm13-31.93c0-1.35,0-2.7,0-4.05.09-2.2-.9-3.11-3.09-3-2.43.1-4.87.05-7.3,0-1.82,0-2.65.84-2.64,2.62s0,3.79,0,5.68c0,5.83,0,5.85,5.93,5.82C16.56,304,15.92,305,15.93,297Zm-13-32.2V268c0,3.83.18,4,4,4H8.23c8.63-.11,7.65,1.2,7.7-7.83.05-7,.28-6.3-6.27-6.29C2.35,257.93,2.9,257.07,2.9,264.79Zm13,191.13c0-1.18-.07-2.36,0-3.53.19-2.45-.84-3.49-3.32-3.35-2.25.13-4.52.08-6.78,0-2-.06-3,.78-3,2.88.07,1.81,0,3.62,0,5.43,0,5.82,0,5.9,5.75,5.8C15.74,463,16,465,15.93,455.92Zm0,32.13c0-1.36,0-2.71,0-4.07.09-2.09-.89-3-2.94-2.89-2.53.07-5.07,0-7.6,0a2.19,2.19,0,0,0-2.49,2.5c0,1.89,0,3.79,0,5.69,0,5.93,0,6,5.92,5.91C15.65,495.09,16.05,497,15.93,488.05Zm-13-64.3c0,1.63-.08,3.26,0,4.89s.89,2.69,2.77,2.51c.81-.07,1.63,0,2.44,0,8-.2,7.79,1.76,7.77-7.87,0-6.81.41-6.26-6.36-6.25C2.27,417,2.91,416.36,2.93,423.75Zm0-285.7c0,1.35,0,2.7,0,4C2.83,144,3.6,145,5.58,145c2.61,0,5.22,0,7.83,0a2.19,2.19,0,0,0,2.52-2.46c0-2.88.07-5.76,0-8.64-.06-1.94-1-3.21-3.18-3-.89.07-1.8,0-2.7,0C3.18,130.79,2.76,129.9,2.9,138.05ZM2.9,170c0,1.44,0,2.88,0,4.32,0,2,.91,2.76,2.81,2.72,2.52-.05,5.05,0,7.57,0,1.59,0,2.63-.59,2.64-2.32,0-3,.09-5.95,0-8.92-.07-1.79-.94-3-3-2.89-1,.07-2,0-3,0C3.23,162.82,2.75,162,2.9,170Zm13,445.15c0-1.44,0-2.88,0-4.32,0-1.63-.67-2.59-2.38-2.59a83.4,83.4,0,0,0-8.37.09A3.14,3.14,0,0,0,3,610.35,72.08,72.08,0,0,0,3,619.53a2.62,2.62,0,0,0,3.14,2.79,27,27,0,0,1,2.7,0C15.64,622.34,16.08,623.26,15.93,615.11ZM2.9,10.92c0,7.31-.8,7,6.15,7,7.76,0,6.85.73,6.88-7.31,0-6.76.48-6.29-6.28-6.28C2.28,4.31,2.9,3.63,2.9,10.92Zm13,1017.57c0-7.19.87-7.09-5.8-7-8.09.06-7.2-.86-7.24,7.22,0,6.92-.51,6.37,6.47,6.36C16.52,1035,16,1035.62,15.94,1028.49ZM2.9,42.88C3,50.07,2,50,8.7,49.92c8.09-.06,7.2.85,7.23-7.22,0-6.92.51-6.37-6.47-6.37C2.32,36.34,2.89,35.74,2.9,42.88Zm13,508c0-1.17-.08-2.35,0-3.51.2-2.47-.88-3.46-3.33-3.32a63.86,63.86,0,0,1-6.49,0c-2.28-.11-3.4.76-3.24,3.13.09,1.44,0,2.89,0,4.33,0,6.57-.41,6.16,6.16,6.14C16.6,557.65,15.93,558.41,15.94,550.91Zm0,445.5c0-7.48.79-7-6.38-7-7.42,0-6.64-.62-6.66,7,0,7.15-.61,6.59,6.51,6.59S15.94,1003.56,15.94,996.41Zm0-95c0-7.35.82-7.06-6.09-7-7.7,0-6.93-.74-6.95,7,0,7.16-.63,6.62,6.49,6.62S15.94,908.54,15.94,901.4Zm-13-32.35c0,7.1-.81,6.91,6,6.87,7.88,0,7,.79,7.06-7.12,0-7,.56-6.48-6.37-6.47C2.25,862.34,2.9,861.7,2.9,869.05Zm0-286.24c.05,7-.88,7,5.66,6.91,8.28-.07,7.33.92,7.38-7.35,0-6.75.43-6.24-6.34-6.23C2.26,576.15,2.9,575.5,2.9,582.81Zm0,126.94c.05,7.19-.88,7.1,5.79,7,8.1-.06,7.21.86,7.24-7.21,0-6.92.52-6.38-6.45-6.37C2.33,703.22,2.89,702.62,2.9,709.75Zm0,32.15c0,7.58-.75,6.92,6.71,6.94,7,0,6.32.46,6.32-6.78s.7-6.8-6.57-6.8C2.25,735.25,2.9,734.73,2.9,741.9Zm13,32.24c0-7.1.78-6.88-6-6.84-7.87,0-7-.78-7,7.15,0,6.95-.54,6.44,6.4,6.43C16.6,780.87,15.93,781.5,15.94,774.14Zm0,63.13c0-7.47.78-7-6.41-7-7.4,0-6.61-.61-6.63,7,0,7.14-.6,6.56,6.54,6.57S15.94,844.42,15.94,837.27ZM9.42,354c-6.87,0-6.53-.79-6.52,6.28,0,6.75,0,6.75,6.65,6.75,6.39,0,6.38,0,6.39-6.47C15.94,353.26,16.42,354.06,9.42,354ZM9.26,399.1c6.68,0,6.67,0,6.68-6.45,0-7.34.49-6.58-6.5-6.57s-6.54-.79-6.54,6.53C2.9,399.1,2.9,399.1,9.26,399.1ZM9.66,240h2.7c3.29,0,3.54-.26,3.57-3.56,0-2,0-4,0-5.95,0-2.37-.87-3.73-3.52-3.54a43.76,43.76,0,0,1-5.95,0c-2.6-.18-3.59,1.09-3.57,3.49,0,.9,0,1.8,0,2.71C2.92,240.84,2.28,239.94,9.66,240Zm-.27-32.05c1.09,0,2.18-.08,3.25,0,2.49.23,3.44-.89,3.32-3.32-.11-2.15,0-4.32,0-6.49s-.83-3.39-3.23-3.26a49.65,49.65,0,0,1-6.22,0c-2.61-.18-3.59,1.09-3.57,3.49,0,1,0,2,0,3C2.9,208.7,2.4,207.92,9.39,207.94Zm.27,763h2.71c3.29,0,3.54-.28,3.56-3.57,0-1.81-.1-3.62,0-5.42.18-2.53-.73-3.76-3.4-3.52-1.34.12-2.7,0-4.06,0-5.6,0-5.61,0-5.6,5.6C2.92,971.66,2.12,970.93,9.66,971Zm-.41-32h2.44c4.22,0,4.24,0,4.25-4.25v-1.09c0-8,.88-7.11-7-7.15-6.43,0-6-.41-6,6C2.91,939.46,2.29,938.92,9.25,938.91Zm0-286.2h1.63c5,0,5,0,5-5.09v-.27c0-8,.86-7.09-7.06-7.13-6.44,0-6-.37-6,6C2.91,653.28,2.31,652.72,9.28,652.71ZM9.53,68.38c-6.56,0-6.69-.86-6.64,5.38C3,81.71,2,80.82,10,80.87c6.43,0,6,.36,6-6.06C15.93,67.8,16.52,68.37,9.53,68.38Zm-.2,616.37c6.74,0,6.65.79,6.61-5.68,0-7.56.73-6.78-6.84-6.81-6.65,0-6.21-.49-6.2,6.09C2.91,685.34,2.33,684.76,9.33,684.75ZM9.4,525.64h3c3.28,0,3.53-.29,3.55-3.58,0-.54,0-1.09,0-1.63-.06-8.2.9-7.25-7.18-7.28-5.86,0-5.86,0-5.86,5.88C2.91,526.23,2.23,525.64,9.4,525.64ZM9.3,112.91c6.56,0,6.7.86,6.64-5.38-.07-8,.85-7.07-7.08-7.11-6.43,0-6-.36-6,6.06C2.91,113.48,2.32,112.92,9.3,112.91Zm.28,686.43H7.14c-4.21,0-4.23,0-4.24,4.26v1.08c.05,8-.88,7.11,7,7.15,6.43,0,6,.41,6-6C15.92,798.79,16.54,799.33,9.58,799.34Z"/>
  <path class="cls-1" d="M270.09,265.17c0,7.73.61,6.81-6.79,6.86-.72,0-1.45,0-2.17,0-2.26.19-3.06-.93-3-3.07.07-2.71.06-5.42,0-8.13,0-2,.75-3,2.87-2.94s4.16.08,6.23,0,2.94.94,2.86,2.95C270,262.28,270.08,263.73,270.09,265.17Z"/>
  <path class="cls-1" d="M270.09,297.1c0,7.9.65,6.91-6.94,7a7,7,0,0,1-2.68-.08c-.89-.42-2.13-1.31-2.18-2.07a60.79,60.79,0,0,1,0-9.73,3.3,3.3,0,0,1,2.34-2.13,58.46,58.46,0,0,1,6.76-.12c2-.06,2.75.94,2.7,2.82C270.05,294.21,270.08,295.65,270.09,297.1Z"/>
  <path class="cls-1" d="M270.09,329.22c0,7.72.77,6.85-7,6.89-.9,0-1.94.27-2.67-.09-.89-.42-2.08-1.34-2.14-2.13-.24-3.14-.09-6.31-.1-9.47,0-1.69.86-2.45,2.53-2.43,2.17,0,4.34.07,6.5,0s3,.87,2.9,2.91C270,326.32,270.08,327.77,270.09,329.22Z"/>
  <path class="cls-1" d="M258.14,488c0-7.74-.77-6.89,7-6.92h2.43c1.64,0,2.55.69,2.55,2.4,0,3,0,5.95,0,8.92,0,1.93-.9,3-3,2.82a31.41,31.41,0,0,0-5.4,0c-2.67.26-3.58-1-3.51-3.44C258.17,490.56,258.14,489.29,258.14,488Z"/>
  <path class="cls-1" d="M258.14,455.75c0-7.38-.67-6.67,6.65-6.68.72,0,1.45.05,2.16,0,2.36-.21,3.26.88,3.16,3.19-.11,2.69,0,5.4,0,8.1,0,1.92-.84,3-3,2.86a38.33,38.33,0,0,0-5.67,0c-2.38.2-3.28-.93-3.27-3.13C258.15,458.64,258.15,457.2,258.14,455.75Z"/>
  <path class="cls-1" d="M270.09,423.81c.07,9,0,7.18-7.42,7.32-4.4.08-4.52-.11-4.53-4.54,0-2.07.1-4.15,0-6.21-.14-2.4.73-3.55,3.25-3.38a40.7,40.7,0,0,0,5.41,0c2.44-.16,3.53.83,3.32,3.3C270,421.46,270.09,422.64,270.09,423.81Z"/>
  <path class="cls-1" d="M270.09,138.4c0,7.17.64,6.55-6.53,6.55-5.42,0-5.42,0-5.42-5.5,0-1.81,0-3.61,0-5.41.05-2.11.9-3.38,3.28-3.23a44.39,44.39,0,0,0,5.41,0c2.39-.15,3.19,1.17,3.24,3.26C270.12,135.51,270.09,137,270.09,138.4Z"/>
  <path class="cls-1" d="M270.09,170.43c0,7.18.64,6.56-6.52,6.56-5.43,0-5.43,0-5.43-5.49,0-1.81,0-3.61,0-5.41.05-2.11.89-3.39,3.27-3.24a44.39,44.39,0,0,0,5.41,0c2.39-.15,3.2,1.16,3.25,3.25C270.12,167.54,270.09,169,270.09,170.43Z"/>
  <path class="cls-1" d="M270.09,615.2c.13,8.15-.27,6.94-7.23,7.16-4.48.14-4.85-1.38-4.73-4.81.07-2.25,0-4.51,0-6.76,0-1.82.83-2.64,2.63-2.61,2.08,0,4.16.09,6.22,0,2.4-.13,3.27,1,3.11,3.25C270,612.67,270.09,613.93,270.09,615.2Z"/>
  <path class="cls-1" d="M270.09,996.26c0,7.41.7,6.72-6.64,6.73-.73,0-1.45,0-2.17,0-2.36.2-3.27-.89-3.16-3.2.11-2.52.07-5.06,0-7.59,0-1.92.75-2.85,2.72-2.81s4.16.09,6.24,0,3.15.89,3,3.08C270,993.73,270.09,995,270.09,996.26Z"/>
  <path class="cls-1" d="M270.09,43.29c0,7.33.67,6.61-6.74,6.62-.82,0-1.63,0-2.44,0-1.94.09-2.82-.8-2.78-2.76.05-2.7.05-5.42,0-8.12,0-2,.92-2.77,2.83-2.71,2.07.05,4.15.07,6.23,0s3,.82,2.91,2.9C270,40.57,270.09,41.93,270.09,43.29Z"/>
  <path class="cls-1" d="M270.09,901.22c0,7.41.7,6.72-6.64,6.73-.73,0-1.45-.05-2.17,0-2.36.2-3.27-.88-3.16-3.2.11-2.52.07-5,0-7.58,0-1.92.75-2.86,2.72-2.81s4.16.08,6.24,0,3.15.88,3,3.07C270,898.69,270.09,900,270.09,901.22Z"/>
  <path class="cls-1" d="M270.09,11.28c0,7.2.66,6.6-6.51,6.59-5.44,0-5.44,0-5.44-5.49,0-1.72.06-3.43,0-5.15-.09-2,.75-3,2.86-2.95s4,.1,6,0c2.36-.13,3.32.9,3.15,3.22C270,8.74,270.09,10,270.09,11.28Z"/>
  <path class="cls-1" d="M270.09,869.18c0,7.41.7,6.72-6.64,6.73-.73,0-1.45,0-2.17,0-2.36.2-3.27-.88-3.16-3.2.11-2.52.07-5.06,0-7.58,0-1.92.75-2.86,2.72-2.81s4.16.08,6.24,0,3.15.88,3,3.07C270,866.65,270.09,867.92,270.09,869.18Z"/>
  <path class="cls-1" d="M270.09,837.33c0,7.18.63,6.54-6.56,6.54-5.39,0-5.39,0-5.39-5.27a33.55,33.55,0,0,1,.12-5.94,3.44,3.44,0,0,1,2.26-2.25,60.64,60.64,0,0,1,6.75-.13c2.14-.07,2.93,1,2.83,3C270,834.62,270.09,836,270.09,837.33Z"/>
  <path class="cls-1" d="M270.09,1028.31c0,7.4.7,6.71-6.65,6.72-.72,0-1.45,0-2.17,0-2.36.2-3.25-.9-3.15-3.21.11-2.52.07-5.06,0-7.58,0-1.93.77-2.85,2.73-2.81s4.16.09,6.23,0c2.24-.1,3.15.89,3,3.08C270,1025.78,270.09,1027,270.09,1028.31Z"/>
  <path class="cls-1" d="M270.09,774.31c0,7.19.65,6.57-6.53,6.57-5.42,0-5.42,0-5.42-5.52,0-1.81,0-3.61,0-5.42s.78-2.67,2.6-2.64c2.08,0,4.16.09,6.23,0,2.39-.13,3.3.94,3.13,3.23C270,771.77,270.09,773,270.09,774.31Z"/>
  <path class="cls-1" d="M270.09,742.09c0,7.42.71,6.74-6.63,6.75a17,17,0,0,0-1.89,0c-2.6.27-3.62-.87-3.46-3.46a56.63,56.63,0,0,0,0-6.77c-.14-2.41.74-3.56,3.26-3.38a40.85,40.85,0,0,0,5.42,0c2.47-.17,3.51.87,3.31,3.33C270,739.73,270.09,740.91,270.09,742.09Z"/>
  <path class="cls-1" d="M270.09,710.06c0,7.41.71,6.73-6.63,6.74-.73,0-1.45-.06-2.17,0-2.35.2-3.28-.86-3.17-3.18.11-2.53.08-5.06,0-7.59-.06-2.14,1-2.9,3-2.83s4,.09,6,0c2.22-.1,3.16.87,3,3.06C270,707.52,270.09,708.79,270.09,710.06Z"/>
  <path class="cls-1" d="M270.09,551c0,7.4.7,6.71-6.65,6.72-.73,0-1.45,0-2.17,0-2.37.2-3.25-.91-3.15-3.21.11-2.53.07-5.06,0-7.59,0-1.93.77-2.85,2.74-2.8s4.15.08,6.23,0,3.14.91,3,3.09C270,548.43,270.09,549.69,270.09,551Z"/>
  <path class="cls-1" d="M270.09,583c0,7.41.7,6.72-6.65,6.73-.72,0-1.45-.05-2.17,0-2.36.2-3.25-.9-3.15-3.21.11-2.52.07-5.06,0-7.58,0-1.93.76-2.86,2.73-2.81s4.16.09,6.23,0c2.24-.1,3.15.9,3,3.08C270,580.46,270.09,581.73,270.09,583Z"/>
  <path class="cls-1" d="M258.14,392.51c0-7.21-.56-6.42,6.37-6.44,5.58,0,5.56,0,5.58,5.6,0,8.86.15,7.37-6.51,7.41C258.57,399.11,258,400.41,258.14,392.51Z"/>
  <path class="cls-1" d="M258.14,360.26c0-7-.47-6.2,6.3-6.23,6,0,5.65-.45,5.66,5.8,0,8.83.21,7.09-7.26,7.22-4.69.08-4.69,0-4.7-4.62Z"/>
  <path class="cls-1" d="M258.14,201.69c-.13-7.8.34-6.68,6.75-6.81,4.77-.11,5.32.28,5.2,5.37,0,1.63-.06,3.26,0,4.88.09,2.13-.9,2.93-3,2.83a47.13,47.13,0,0,0-5.7,0c-2.48.19-3.53-.83-3.31-3.3C258.22,203.69,258.14,202.68,258.14,201.69Z"/>
  <path class="cls-1" d="M270.09,233.82c0,6.84.45,6.15-6.1,6.17-6.32,0-5.79.53-5.86-6.16-.09-7.8.36-6.86,6.38-6.89C269.65,226.91,270.27,226.35,270.09,233.82Z"/>
  <path class="cls-1" d="M270.09,646.61c0,6.65.55,6.1-6.12,6.11-6.27,0-5.85.43-5.83-5.85,0-7.41-.76-6.62,6.66-6.65h1.35c3.88,0,3.93.07,3.94,4Z"/>
  <path class="cls-1" d="M258.14,678.4c0-6.67-.56-6.13,6.08-6.14,6.3,0,5.9-.45,5.87,5.81,0,7.45.77,6.66-6.62,6.68h-.54c-4.79,0-4.79,0-4.79-4.73Z"/>
  <path class="cls-1" d="M270.09,932.82c0,6.64.54,6.08-6.13,6.09-6.27,0-5.84.43-5.82-5.87,0-7.39-.76-6.59,6.68-6.62h1.35c3.86,0,3.91.06,3.92,4Z"/>
  <path class="cls-1" d="M270.09,964.64c0,6.86.65,6.3-6.18,6.31-6.24,0-5.79.4-5.77-5.91,0-7-.78-6.59,5.91-6.59S270.09,957.94,270.09,964.64Z"/>
  <path class="cls-1" d="M258.14,74.69c0-6.87-.65-6.31,6.18-6.32,6.09,0,5.81-.44,5.77,5.65,0,7.64.85,6.81-6.72,6.85h-1.62c-3.37,0-3.58-.22-3.61-3.48Z"/>
  <path class="cls-1" d="M270.09,805.59c0,6.84.6,6.23-6.24,6.25-6.09,0-5.74.37-5.71-5.71,0-7.61-.82-6.75,6.79-6.79a17,17,0,0,0,1.89,0c2.46-.26,3.52.82,3.28,3.28C270,803.6,270.09,804.6,270.09,805.59Z"/>
  <path class="cls-1" d="M258.14,519.38c0-6.86-.58-6.22,6.26-6.24,6.07,0,5.72-.38,5.69,5.72,0,7.6.81,6.74-6.8,6.78a17,17,0,0,0-1.89,0c-2.48.26-3.51-.84-3.27-3.3C258.22,521.37,258.14,520.37,258.14,519.38Z"/>
  <path class="cls-1" d="M270.09,106.79c0,6.66.55,6.11-6.1,6.12-6.28,0-5.87.44-5.85-5.83,0-7.43-.76-6.63,6.64-6.66h1.08c4.23,0,4.23,0,4.23,4.21Z"/>
  <path class="cls-1" d="M2.9,328.92c0-7.86-.56-6.89,7-6.93,6.16,0,6.1-.63,6,6,0,1.8,0,3.61,0,5.41.05,2-.89,2.78-2.8,2.74-2.44-.05-4.87-.07-7.3,0-2,.06-3-.79-2.94-2.88C3,331.8,2.91,330.36,2.9,328.92Z"/>
  <path class="cls-1" d="M15.93,297c0,8.05.63,7-7.1,7.07-5.93,0-5.93,0-5.93-5.82,0-1.89,0-3.78,0-5.68s.82-2.65,2.64-2.62c2.43,0,4.87.09,7.3,0,2.19-.1,3.18.81,3.09,3C15.88,294.29,15.93,295.64,15.93,297Z"/>
  <path class="cls-1" d="M2.9,264.79c0-7.72-.55-6.86,6.76-6.88,6.55,0,6.32-.68,6.27,6.29,0,9,.93,7.72-7.7,7.83H6.88c-3.8,0-3.95-.17-4-4Z"/>
  <path class="cls-1" d="M15.93,455.92c.11,9-.19,7.12-7.28,7.24-5.75.1-5.75,0-5.75-5.8,0-1.81.06-3.62,0-5.43-.07-2.1.91-2.94,3-2.88,2.26.07,4.53.12,6.78,0,2.48-.14,3.51.9,3.32,3.35C15.86,453.56,15.93,454.74,15.93,455.92Z"/>
  <path class="cls-1" d="M15.93,488.05c.12,8.92-.28,7-7.11,7.16-5.92.09-5.92,0-5.92-5.91,0-1.9,0-3.8,0-5.69a2.19,2.19,0,0,1,2.49-2.5c2.53,0,5.07.05,7.6,0,2.05-.06,3,.8,2.94,2.89C15.88,485.34,15.93,486.69,15.93,488.05Z"/>
  <path class="cls-1" d="M2.93,423.75c0-7.39-.66-6.72,6.65-6.73,6.77,0,6.35-.56,6.36,6.25,0,9.63.19,7.67-7.77,7.87-.81,0-1.63-.06-2.44,0-1.88.18-2.67-.87-2.77-2.51S2.93,425.38,2.93,423.75Z"/>
  <path class="cls-1" d="M2.9,138.05c-.14-8.15.28-7.26,7.12-7.22.9,0,1.81.06,2.7,0,2.22-.18,3.12,1.09,3.18,3,.1,2.88,0,5.76,0,8.64A2.19,2.19,0,0,1,13.41,145c-2.61,0-5.22,0-7.83,0-2,0-2.75-1-2.69-2.86C2.94,140.75,2.9,139.4,2.9,138.05Z"/>
  <path class="cls-1" d="M2.9,170c-.15-8,.33-7.14,7-7.09,1,0,2,.06,3,0,2.1-.14,3,1.1,3,2.89.12,3,0,5.95,0,8.92,0,1.73-1.05,2.34-2.64,2.32-2.52,0-5,0-7.57,0-1.9,0-2.86-.76-2.81-2.72C2.94,172.84,2.9,171.4,2.9,170Z"/>
  <path class="cls-1" d="M15.93,615.11c.15,8.15-.29,7.23-7.14,7.19a27,27,0,0,0-2.7,0A2.62,2.62,0,0,1,3,619.53,72.08,72.08,0,0,1,3,610.35a3.14,3.14,0,0,1,2.17-2.06,83.4,83.4,0,0,1,8.37-.09c1.71,0,2.39,1,2.38,2.59C15.92,612.23,15.93,613.67,15.93,615.11Z"/>
  <path class="cls-1" d="M2.9,10.92c0-7.29-.62-6.61,6.75-6.63,6.76,0,6.32-.48,6.28,6.28,0,8,.88,7.28-6.88,7.31C2.1,17.9,2.93,18.23,2.9,10.92Z"/>
  <path class="cls-1" d="M15.94,1028.49c0,7.13.58,6.54-6.57,6.54-7,0-6.5.56-6.47-6.36,0-8.08-.85-7.16,7.24-7.22C16.81,1021.4,15.89,1021.3,15.94,1028.49Z"/>
  <path class="cls-1" d="M2.9,42.88c0-7.14-.58-6.54,6.56-6.55,7,0,6.5-.55,6.47,6.37,0,8.07.86,7.16-7.23,7.22C2,50,3,50.07,2.9,42.88Z"/>
  <path class="cls-1" d="M15.94,550.91c0,7.5.66,6.74-6.88,6.77-6.57,0-6.19.43-6.16-6.14,0-1.44.08-2.89,0-4.33-.16-2.37,1-3.24,3.24-3.13a63.86,63.86,0,0,0,6.49,0c2.45-.14,3.53.85,3.33,3.32C15.86,548.56,15.94,549.74,15.94,550.91Z"/>
  <path class="cls-1" d="M15.94,996.41c0,7.15.6,6.58-6.53,6.58s-6.52.56-6.51-6.59c0-7.61-.76-7,6.66-7C16.73,989.4,15.91,988.93,15.94,996.41Z"/>
  <path class="cls-1" d="M15.94,901.4c0,7.14.59,6.55-6.55,6.56s-6.5.54-6.49-6.62c0-7.71-.75-6.93,7-7C16.76,894.34,15.9,894.05,15.94,901.4Z"/>
  <path class="cls-1" d="M2.9,869.05c0-7.35-.65-6.71,6.66-6.72,6.93,0,6.4-.51,6.37,6.47,0,7.91.82,7.07-7.06,7.12C2.09,876,2.93,876.15,2.9,869.05Z"/>
  <path class="cls-1" d="M2.9,582.81c0-7.31-.64-6.66,6.7-6.67,6.77,0,6.37-.52,6.34,6.23,0,8.27.9,7.28-7.38,7.35C2,589.78,3,589.76,2.9,582.81Z"/>
  <path class="cls-1" d="M2.9,709.75c0-7.13-.57-6.53,6.58-6.53,7,0,6.48-.55,6.45,6.37,0,8.07.86,7.15-7.24,7.21C2,716.85,3,716.94,2.9,709.75Z"/>
  <path class="cls-1" d="M2.9,741.9c0-7.17-.65-6.65,6.46-6.64,7.27,0,6.57-.59,6.57,6.8s.71,6.79-6.32,6.78C2.15,748.82,2.92,749.48,2.9,741.9Z"/>
  <path class="cls-1" d="M15.94,774.14c0,7.36.66,6.73-6.64,6.74-6.94,0-6.42.52-6.4-6.43,0-7.93-.83-7.11,7-7.15C16.72,767.26,15.91,767,15.94,774.14Z"/>
  <path class="cls-1" d="M15.94,837.27c0,7.15.63,6.61-6.5,6.61s-6.55.57-6.54-6.57c0-7.63-.77-7,6.63-7C16.72,830.28,15.91,829.8,15.94,837.27Z"/>
  <path class="cls-1" d="M9.42,354c7,0,6.52-.77,6.52,6.56,0,6.47,0,6.47-6.39,6.47-6.65,0-6.64,0-6.65-6.75C2.89,353.24,2.55,354.06,9.42,354Z"/>
  <path class="cls-1" d="M9.26,399.1c-6.36,0-6.36,0-6.36-6.49,0-7.32-.48-6.53,6.54-6.53s6.5-.77,6.5,6.57C15.93,399.1,15.94,399.1,9.26,399.1Z"/>
  <path class="cls-1" d="M9.66,240c-7.38-.05-6.74.85-6.76-6.87,0-.91,0-1.81,0-2.71,0-2.4,1-3.67,3.57-3.49a43.76,43.76,0,0,0,6,0c2.65-.19,3.54,1.17,3.52,3.54,0,2,0,4,0,5.95,0,3.3-.28,3.54-3.57,3.56Z"/>
  <path class="cls-1" d="M9.39,207.94c-7,0-6.49.76-6.49-6.59,0-1,0-2,0-3,0-2.4,1-3.67,3.57-3.49a49.65,49.65,0,0,0,6.22,0c2.4-.13,3.2,1.18,3.23,3.26s-.07,4.34,0,6.49c.12,2.43-.83,3.55-3.32,3.32C11.57,207.86,10.48,207.94,9.39,207.94Z"/>
  <path class="cls-1" d="M9.66,971c-7.54,0-6.74.71-6.76-6.89,0-5.6,0-5.6,5.6-5.6,1.36,0,2.72.1,4.06,0,2.67-.24,3.58,1,3.4,3.52-.13,1.8,0,3.61,0,5.42,0,3.29-.27,3.54-3.56,3.57Z"/>
  <path class="cls-1" d="M9.25,938.91c-7,0-6.34.55-6.35-6.48,0-6.42-.42-6,6-6,7.91,0,7-.83,7,7.15v1.09c0,4.22,0,4.24-4.25,4.25Z"/>
  <path class="cls-1" d="M9.28,652.71c-7,0-6.37.57-6.38-6.44,0-6.42-.46-6.08,6-6,7.92,0,7-.83,7.06,7.13v.27c0,5.09,0,5.09-5,5.09Z"/>
  <path class="cls-1" d="M9.53,68.38c7,0,6.4-.58,6.41,6.43,0,6.42.47,6.1-6,6.06-7.94-.05-7,.84-7.09-7.11C2.84,67.52,3,68.42,9.53,68.38Z"/>
  <path class="cls-1" d="M9.33,684.75c-7,0-6.42.59-6.43-6.4,0-6.58-.45-6.11,6.2-6.09,7.57,0,6.79-.75,6.84,6.81C16,685.54,16.07,684.73,9.33,684.75Z"/>
  <path class="cls-1" d="M9.4,525.64c-7.17,0-6.49.59-6.5-6.61,0-5.88,0-5.9,5.86-5.88,8.08,0,7.12-.92,7.18,7.28,0,.54,0,1.09,0,1.63,0,3.29-.27,3.55-3.55,3.58Z"/>
  <path class="cls-1" d="M9.3,112.91c-7,0-6.39.57-6.4-6.43,0-6.42-.47-6.1,6-6.06,7.93,0,7-.85,7.08,7.11C16,113.77,15.86,112.86,9.3,112.91Z"/>
  <path class="cls-1" d="M9.58,799.34c7,0,6.34-.55,6.36,6.48,0,6.42.42,6-6,6-7.91,0-7,.83-7-7.15V803.6c0-4.23,0-4.25,4.24-4.26Z"/>
</svg>
